<mxfile host="app.diagrams.net" agent="Mozilla/5.0 (Windows NT 10.0; Win64; x64) AppleWebKit/537.36 (KHTML, like Gecko) Chrome/128.0.0.0 Safari/537.36" version="24.7.17">
  <diagram name="Halaman-1" id="CLZ2Kg6Wd947HHNrbjYW">
    <mxGraphModel dx="1024" dy="551" grid="1" gridSize="10" guides="1" tooltips="1" connect="1" arrows="1" fold="1" page="1" pageScale="1" pageWidth="827" pageHeight="1169" math="0" shadow="0">
      <root>
        <mxCell id="0" />
        <mxCell id="1" parent="0" />
        <mxCell id="TBKTQsrD_Glb7A05f-CW-2" value="Start&amp;nbsp;" style="rounded=1;whiteSpace=wrap;html=1;arcSize=50;" parent="1" vertex="1">
          <mxGeometry x="230" y="140" width="120" height="60" as="geometry" />
        </mxCell>
        <mxCell id="TBKTQsrD_Glb7A05f-CW-15" style="edgeStyle=orthogonalEdgeStyle;rounded=0;orthogonalLoop=1;jettySize=auto;html=1;exitX=0.5;exitY=1;exitDx=0;exitDy=0;entryX=0.5;entryY=0;entryDx=0;entryDy=0;" parent="1" source="TBKTQsrD_Glb7A05f-CW-4" target="TBKTQsrD_Glb7A05f-CW-5" edge="1">
          <mxGeometry relative="1" as="geometry" />
        </mxCell>
        <mxCell id="TBKTQsrD_Glb7A05f-CW-4" value="login" style="rounded=1;whiteSpace=wrap;html=1;arcSize=11;" parent="1" vertex="1">
          <mxGeometry x="230" y="270" width="120" height="70" as="geometry" />
        </mxCell>
        <mxCell id="TBKTQsrD_Glb7A05f-CW-16" value="" style="edgeStyle=orthogonalEdgeStyle;rounded=0;orthogonalLoop=1;jettySize=auto;html=1;" parent="1" source="TBKTQsrD_Glb7A05f-CW-5" target="TBKTQsrD_Glb7A05f-CW-6" edge="1">
          <mxGeometry relative="1" as="geometry" />
        </mxCell>
        <mxCell id="TBKTQsrD_Glb7A05f-CW-5" value="&lt;font style=&quot;font-size: 12px;&quot;&gt;Masukan&amp;nbsp;&lt;/font&gt;&lt;div&gt;&lt;font style=&quot;font-size: 12px;&quot;&gt;Username dan&lt;/font&gt;&lt;/div&gt;&lt;div&gt;&lt;font style=&quot;font-size: 12px;&quot;&gt;&amp;nbsp;pasword&lt;/font&gt;&lt;/div&gt;" style="shape=parallelogram;perimeter=parallelogramPerimeter;whiteSpace=wrap;html=1;fixedSize=1;size=30;" parent="1" vertex="1">
          <mxGeometry x="220" y="400" width="140" height="80" as="geometry" />
        </mxCell>
        <mxCell id="TBKTQsrD_Glb7A05f-CW-17" value="" style="edgeStyle=orthogonalEdgeStyle;rounded=0;orthogonalLoop=1;jettySize=auto;html=1;" parent="1" source="TBKTQsrD_Glb7A05f-CW-6" target="TBKTQsrD_Glb7A05f-CW-8" edge="1">
          <mxGeometry relative="1" as="geometry" />
        </mxCell>
        <mxCell id="TBKTQsrD_Glb7A05f-CW-28" value="yes" style="edgeLabel;html=1;align=center;verticalAlign=middle;resizable=0;points=[];" parent="TBKTQsrD_Glb7A05f-CW-17" vertex="1" connectable="0">
          <mxGeometry x="-0.1104" relative="1" as="geometry">
            <mxPoint as="offset" />
          </mxGeometry>
        </mxCell>
        <mxCell id="TBKTQsrD_Glb7A05f-CW-25" style="edgeStyle=orthogonalEdgeStyle;rounded=0;orthogonalLoop=1;jettySize=auto;html=1;exitX=0;exitY=0.5;exitDx=0;exitDy=0;entryX=0;entryY=0.5;entryDx=0;entryDy=0;" parent="1" source="TBKTQsrD_Glb7A05f-CW-6" target="TBKTQsrD_Glb7A05f-CW-2" edge="1">
          <mxGeometry relative="1" as="geometry">
            <Array as="points">
              <mxPoint x="140" y="585" />
              <mxPoint x="140" y="170" />
            </Array>
          </mxGeometry>
        </mxCell>
        <mxCell id="TBKTQsrD_Glb7A05f-CW-27" value="No" style="edgeLabel;html=1;align=center;verticalAlign=middle;resizable=0;points=[];" parent="TBKTQsrD_Glb7A05f-CW-25" vertex="1" connectable="0">
          <mxGeometry x="0.0714" y="-3" relative="1" as="geometry">
            <mxPoint as="offset" />
          </mxGeometry>
        </mxCell>
        <mxCell id="TBKTQsrD_Glb7A05f-CW-6" value="Validasi Login" style="rhombus;whiteSpace=wrap;html=1;" parent="1" vertex="1">
          <mxGeometry x="240" y="534.5" width="100" height="100" as="geometry" />
        </mxCell>
        <mxCell id="TBKTQsrD_Glb7A05f-CW-19" value="" style="edgeStyle=orthogonalEdgeStyle;rounded=0;orthogonalLoop=1;jettySize=auto;html=1;" parent="1" source="TBKTQsrD_Glb7A05f-CW-8" target="TBKTQsrD_Glb7A05f-CW-11" edge="1">
          <mxGeometry relative="1" as="geometry" />
        </mxCell>
        <mxCell id="TBKTQsrD_Glb7A05f-CW-8" value="Tampilan Halaman&lt;div&gt;Utama&lt;/div&gt;" style="shape=parallelogram;perimeter=parallelogramPerimeter;whiteSpace=wrap;html=1;fixedSize=1;size=30;" parent="1" vertex="1">
          <mxGeometry x="220" y="690" width="140" height="80" as="geometry" />
        </mxCell>
        <mxCell id="TBKTQsrD_Glb7A05f-CW-21" value="" style="edgeStyle=orthogonalEdgeStyle;rounded=0;orthogonalLoop=1;jettySize=auto;html=1;" parent="1" source="TBKTQsrD_Glb7A05f-CW-10" target="TBKTQsrD_Glb7A05f-CW-12" edge="1">
          <mxGeometry relative="1" as="geometry" />
        </mxCell>
        <mxCell id="TBKTQsrD_Glb7A05f-CW-10" value="Tampilan Halaman Pengelolaan Anggota Proyek" style="shape=parallelogram;perimeter=parallelogramPerimeter;whiteSpace=wrap;html=1;fixedSize=1;size=30;" parent="1" vertex="1">
          <mxGeometry x="418" y="545" width="148" height="80" as="geometry" />
        </mxCell>
        <mxCell id="TBKTQsrD_Glb7A05f-CW-20" value="" style="edgeStyle=orthogonalEdgeStyle;rounded=0;orthogonalLoop=1;jettySize=auto;html=1;" parent="1" source="TBKTQsrD_Glb7A05f-CW-11" target="TBKTQsrD_Glb7A05f-CW-10" edge="1">
          <mxGeometry relative="1" as="geometry" />
        </mxCell>
        <mxCell id="TBKTQsrD_Glb7A05f-CW-11" value="Pengelolaan Anggota&amp;nbsp;&lt;br&gt;proyek" style="rounded=1;whiteSpace=wrap;html=1;arcSize=11;" parent="1" vertex="1">
          <mxGeometry x="432" y="695" width="120" height="70" as="geometry" />
        </mxCell>
        <mxCell id="TBKTQsrD_Glb7A05f-CW-22" value="" style="edgeStyle=orthogonalEdgeStyle;rounded=0;orthogonalLoop=1;jettySize=auto;html=1;" parent="1" source="TBKTQsrD_Glb7A05f-CW-12" target="TBKTQsrD_Glb7A05f-CW-14" edge="1">
          <mxGeometry relative="1" as="geometry" />
        </mxCell>
        <mxCell id="TBKTQsrD_Glb7A05f-CW-12" value="Tambah Data Anggota Proyek" style="rounded=1;whiteSpace=wrap;html=1;arcSize=11;" parent="1" vertex="1">
          <mxGeometry x="432" y="400" width="120" height="70" as="geometry" />
        </mxCell>
        <mxCell id="TBKTQsrD_Glb7A05f-CW-14" value="Tampilan&amp;nbsp;" style="shape=parallelogram;perimeter=parallelogramPerimeter;whiteSpace=wrap;html=1;fixedSize=1;size=30;" parent="1" vertex="1">
          <mxGeometry x="414" y="265" width="156" height="80" as="geometry" />
        </mxCell>
      </root>
    </mxGraphModel>
  </diagram>
</mxfile>
